<?xml version="1.0" standalone="no"?>
<!DOCTYPE svg PUBLIC "-//W3C//DTD SVG 1.1//EN" "http://www.w3.org/Graphics/SVG/1.1/DTD/svg11.dtd" >
<svg xmlns="http://www.w3.org/2000/svg" xmlns:xlink="http://www.w3.org/1999/xlink" version="1.1">
<metadata></metadata>
<defs>
<font id="daxlightitalic" horiz-adv-x="1052" >
<font-face units-per-em="2048" ascent="1638" descent="-410" />
<missing-glyph horiz-adv-x="573" />
<glyph horiz-adv-x="0" />
<glyph unicode="&#xd;" horiz-adv-x="681" />
<glyph unicode=" "  horiz-adv-x="573" />
<glyph unicode="&#x09;" horiz-adv-x="573" />
<glyph unicode="&#xa0;" horiz-adv-x="573" />
<glyph unicode="!" horiz-adv-x="569" d="M127 63q0 39 31.5 72t74.5 33q31 0 50.5 -19.5t19.5 -48.5q0 -39 -31.5 -71.5t-74.5 -32.5q-31 0 -50.5 19.5t-19.5 47.5zM248 440l176 969h129l-223 -969h-82z" />
<glyph unicode="&#x22;" horiz-adv-x="737" d="M270 911l72 484q31 31 70 31t55 -31l-135 -484h-62zM565 911l72 484q31 31 70 31t55 -31l-135 -484h-62z" />
<glyph unicode="#" d="M90 485l8 62h230l75 352h-225l8 62h230l92 448h70l-93 -448h260l93 448h71l-94 -448h229l-8 -62h-233l-76 -352h229l-8 -62h-233l-99 -485h-71l100 485h-260l-102 -485h-68l100 485h-225zM397 547h260l76 352h-262z" />
<glyph unicode="$" d="M61 55l50 74q90 -61 235 -61q170 0 276.5 111.5t106.5 262.5q0 76 -46 131.5t-112.5 91t-132 73.5t-111.5 103.5t-46 157.5q0 162 117.5 288t299.5 140l31 228h82l-61 -225q153 -2 237 -76l-43 -66q-84 59 -215 60q-162 0 -250 -107.5t-88 -234.5q0 -76 47 -130.5 t113.5 -89t134.5 -73.5t115 -104.5t47 -157.5q0 -170 -123 -311.5t-328 -157.5l-30 -238h-88l65 236q-186 2 -283 75z" />
<glyph unicode="%" horiz-adv-x="1728" d="M225 725q0 209 90 440q104 264 295 265q185 0 185 -254q0 -211 -88 -437q-104 -268 -295 -268q-186 0 -187 254zM303 707q0 -172 115 -172q135 0 217 231q33 92 59.5 222t26.5 214q0 176 -117 176q-133 0 -217 -233q-33 -90 -58.5 -221t-25.5 -217zM485 8l770 1413 l66 -20l-770 -1413zM1016 233q0 209 90 441q104 264 295 264q184 0 184 -254q0 -211 -88 -436q-104 -268 -295 -268q-186 0 -186 253zM1094 215q0 -172 114 -172q135 0 217 231q33 92 59.5 222.5t26.5 214.5q0 176 -116 176q-133 0 -217 -234q-33 -90 -58.5 -221t-25.5 -217 z" />
<glyph unicode="&#x26;" horiz-adv-x="1253" d="M94 307q0 225 211 375q119 82 283 125v4q-244 57 -244 262q0 141 114.5 249t311.5 108q160 0 256 -76l-43 -64q-82 63 -213 64q-162 0 -239.5 -85t-77.5 -198q0 -94 69.5 -151.5t177.5 -57.5q236 0 572 166l14 -84q-117 -51 -246 -82l-168 -805q-123 -78 -356 -77 q-195 0 -308.5 89t-113.5 238zM211 307q0 -117 85 -184.5t239 -67.5q135 0 237 41l154 738q-418 -94 -561 -209q-154 -121 -154 -318z" />
<glyph unicode="'" horiz-adv-x="442" d="M270 911l72 484q31 31 70 31t55 -31l-135 -484h-62z" />
<glyph unicode="(" horiz-adv-x="716" d="M147 348q0 362 195 709q145 260 453 573l57 -41q-266 -291 -410 -575q-176 -356 -176 -731q0 -365 170 -705l-61 -41q-227 422 -228 811z" />
<glyph unicode=")" horiz-adv-x="716" d="M-102 -422q266 291 409 576q176 356 176 731q0 365 -170 704l62 41q227 -422 227 -811q0 -362 -194 -708q-145 -260 -453 -574z" />
<glyph unicode="*" horiz-adv-x="872" d="M295 1366q0 35 28.5 61.5t63.5 26.5q29 0 48.5 -18t19.5 -45q0 -35 -29 -63t-64 -28q-29 0 -48 18.5t-19 47.5zM315 1087q0 35 29 62t64 27q29 0 48 -18.5t19 -45.5q0 -35 -28.5 -62.5t-63.5 -27.5q-29 0 -48.5 18.5t-19.5 46.5zM530 1288q0 31 26 55.5t56 24.5 q27 0 43.5 -17t16.5 -42q0 -31 -25.5 -54.5t-56.5 -23.5q-27 0 -43.5 16.5t-16.5 40.5zM573 1540q0 35 29 61.5t64 26.5q29 0 48 -18t19 -45q0 -35 -28.5 -62.5t-63.5 -27.5q-29 0 -48.5 18t-19.5 47zM641 1087q0 35 28.5 62t63.5 27q29 0 48.5 -18.5t19.5 -45.5 q0 -35 -29 -62.5t-63 -27.5q-29 0 -48.5 18.5t-19.5 46.5zM778 1366q0 35 29 61.5t63 26.5q29 0 48.5 -18t19.5 -45q0 -35 -28.5 -63t-63.5 -28q-29 0 -48.5 18.5t-19.5 47.5z" />
<glyph unicode="+" d="M172 647l18 82h336l78 375h88l-76 -375h338l-16 -82h-340l-78 -379h-90l80 379h-338z" />
<glyph unicode="," horiz-adv-x="495" d="M-147 -346l260 463q45 35 90 35q51 0 51 -35l-330 -463h-71z" />
<glyph unicode="-" horiz-adv-x="696" d="M160 639l20 98h430l-20 -98h-430z" />
<glyph unicode="." horiz-adv-x="495" d="M70 63q0 39 31.5 72t74.5 33q31 0 50.5 -19.5t19.5 -48.5q0 -39 -32 -71.5t-75 -32.5q-31 0 -50 19.5t-19 47.5z" />
<glyph unicode="/" horiz-adv-x="991" d="M-172 -422l1180 2050l86 -37l-1180 -2050z" />
<glyph unicode="0" d="M131 383q0 160 44 352.5t112 339.5q162 354 430 355q287 0 287 -408q0 -158 -43 -348.5t-111 -337.5q-164 -356 -432 -356q-287 0 -287 403zM233 352q0 -295 191 -295q201 0 334 316q61 141 103 340.5t42 351.5q0 297 -188 297q-201 0 -338 -326q-59 -141 -101.5 -338.5 t-42.5 -345.5z" />
<glyph unicode="1" d="M299 1118v72q328 43 473 219h76l-291 -1409h-113l256 1233q-70 -41 -188.5 -73t-212.5 -42z" />
<glyph unicode="2" d="M-12 0l653 713q104 113 161.5 212t57.5 216q0 203 -260 202q-143 0 -276 -61l-19 72q147 76 322 76q168 0 262 -76t94 -213q0 -201 -256 -469l-545 -580h611l-19 -92h-786z" />
<glyph unicode="3" d="M4 55l45 72q94 -63 260 -64q186 0 305 126t119 294q0 141 -106.5 200.5t-266.5 49.5l15 70q203 14 324.5 120.5t121.5 252.5q0 82 -54 127t-157 45q-156 0 -286 -64l-19 70q143 76 320 76q137 0 225 -64.5t88 -181.5q0 -147 -113.5 -257t-242.5 -141v-4 q111 -25 189.5 -98.5t78.5 -196.5q0 -197 -146.5 -352t-394.5 -155q-184 0 -305 75z" />
<glyph unicode="4" d="M82 342l16 82l785 985h104l-205 -993h119l-16 -74h-119l-70 -342h-100l72 342h-586zM188 416h494l139 663l47 211h-4q-66 -94 -149 -200z" />
<glyph unicode="5" d="M25 55l45 72q98 -63 262 -64q162 0 291 120t129 317q0 319 -519 239l189 670h618l-18 -92h-537l-139 -500q256 35 390 -53t134 -262q0 -217 -157.5 -369.5t-380.5 -152.5q-190 0 -307 75z" />
<glyph unicode="6" d="M115 328q0 244 131 495q74 141 180 255t217 181.5t189.5 103.5t148.5 56l14 -76q-449 -152 -665 -559q121 45 231 45q168 0 266.5 -81.5t98.5 -235.5q0 -123 -54.5 -242.5t-171 -204.5t-268 -85t-234.5 90t-83 258zM219 322q0 -262 219 -263q170 0 275.5 143.5 t105.5 319.5q0 238 -282 238q-129 0 -234 -43q-84 -195 -84 -395z" />
<glyph unicode="7" d="M115 0l837 1317h-673l18 92h813l-285 -442q-160 -250 -324.5 -535t-238.5 -432h-147z" />
<glyph unicode="8" d="M82 254q0 86 37 163t103.5 138t131 103t148.5 85q-115 74 -164 138.5t-49 146.5q0 166 131 284t299 118q127 0 210 -73t83 -188q0 -147 -98.5 -247.5t-262.5 -182.5q131 -86 188.5 -164.5t57.5 -171.5q0 -184 -145.5 -303.5t-333.5 -119.5q-141 0 -238.5 72.5 t-97.5 201.5zM186 266q0 -96 65.5 -151.5t170.5 -55.5q145 0 258 95.5t113 257.5q0 78 -49.5 143.5t-172.5 144.5q-84 -43 -138 -76.5t-117.5 -87t-96.5 -121t-33 -149.5zM387 1032q0 -72 43 -126t152 -124q76 37 124 67t101 77t79.5 106t26.5 133q0 86 -52 138.5t-146 52.5 q-137 0 -232.5 -94.5t-95.5 -229.5z" />
<glyph unicode="9" d="M127 61q449 158 666 564q-121 -45 -232 -45q-172 0 -267 89t-95 234q0 115 52 231.5t169 206t270.5 89.5t235.5 -89.5t82 -255.5q0 -246 -131 -499q-74 -141 -180.5 -255t-216 -182.5t-190.5 -105.5t-149 -57zM303 899q0 -119 71.5 -183.5t213.5 -64.5q127 0 231 43 q37 78 61.5 192t24.5 208q0 260 -221 260q-94 0 -170 -45t-120 -116t-67.5 -147.5t-23.5 -146.5z" />
<glyph unicode=":" horiz-adv-x="495" d="M70 63q0 39 31.5 72t74.5 33q31 0 50.5 -19.5t19.5 -48.5q0 -39 -32 -71.5t-75 -32.5q-31 0 -50 19.5t-19 47.5zM201 686q0 39 31.5 72t74.5 33q31 0 50.5 -19.5t19.5 -48.5q0 -39 -32 -72t-75 -33q-31 0 -50 19.5t-19 48.5z" />
<glyph unicode=";" horiz-adv-x="495" d="M-147 -346l260 463q45 35 90 35q51 0 51 -35l-330 -463h-71zM201 686q0 39 31.5 72t74.5 33q31 0 50.5 -19.5t19.5 -48.5q0 -39 -32 -72t-75 -33q-31 0 -50 19.5t-19 48.5z" />
<glyph unicode="&#x3c;" d="M143 653l17 82l839 346l-20 -98l-731 -295l610 -293l-18 -86z" />
<glyph unicode="=" d="M139 479l17 82h762l-17 -82h-762zM209 811l16 82h762l-16 -82h-762z" />
<glyph unicode="&#x3e;" d="M94 309l21 99l731 294l-608 295l16 84l696 -346l-16 -82z" />
<glyph unicode="?" horiz-adv-x="765" d="M193 63q0 39 31.5 72t74.5 33q31 0 50.5 -19.5t19.5 -48.5q0 -39 -32 -71.5t-75 -32.5q-31 0 -50 19.5t-19 47.5zM270 1354q135 76 283 76q143 0 223 -65.5t80 -188.5q0 -147 -107.5 -254t-263.5 -152l-90 -330h-82l52 373q162 39 270 128t108 230q0 174 -221 175 q-111 0 -225 -60z" />
<glyph unicode="@" horiz-adv-x="1798" d="M123 252q0 240 117.5 475.5t306.5 405.5q328 297 702 297q217 0 346 -115t129 -318q0 -266 -192 -563q-197 -303 -406 -303q-61 0 -90.5 51t-7.5 150q-150 -197 -362 -197q-88 0 -133.5 58.5t-45.5 154.5q0 119 63.5 255t154.5 235q150 168 305 168q193 0 196 -213 l72 178h78l-209 -498q-51 -119 -51 -211q0 -70 65 -69q68 0 155 76.5t165 197.5q180 279 180 522q0 182 -108.5 285.5t-303.5 103.5q-350 0 -663 -286q-178 -166 -288 -388.5t-110 -451.5q0 -233 144.5 -357t406.5 -124q219 0 388 70.5t348 230.5l30 -39 q-174 -164 -353 -240t-411 -76q-293 0 -455.5 138.5t-162.5 396.5zM575 358q0 -162 138 -161q156 0 301 200q147 203 147 379q0 84 -40 127t-99 43q-135 0 -266 -155q-74 -88 -127.5 -208t-53.5 -225z" />
<glyph unicode="A" horiz-adv-x="1167" d="M-53 0l778 1409h94l193 -1409h-119l-55 481h-516l-259 -481h-116zM362 557h467l-65 571l-12 170h-4q-27 -70 -80 -170z" />
<glyph unicode="B" horiz-adv-x="1114" d="M70 55l268 1299q147 76 354 76q178 0 277.5 -74t99.5 -201q0 -150 -107.5 -265.5t-254.5 -139.5v-5q117 -16 195.5 -100t78.5 -203q0 -76 -35 -158.5t-86 -140.5q-151 -163 -444 -163h-4q-217 0 -342 75zM186 98q94 -39 224 -39q231 0 350 125q104 109 104 277 q0 133 -106.5 193.5t-327.5 60.5h-115zM328 776h112q272 0 396 105q118 100 118 272q0 205 -274 205q-129 0 -240 -37z" />
<glyph unicode="C" horiz-adv-x="970" d="M135 463q0 219 83 441t228 362q170 164 379 164q156 0 240 -76l-49 -62q-76 55 -187 56q-174 0 -311 -144q-121 -129 -191.5 -340t-70.5 -401q0 -397 289 -397q61 0 125.5 20t99.5 45l27 -76q-97 -75 -267 -75h-4q-190 0 -290.5 131t-100.5 352z" />
<glyph unicode="D" horiz-adv-x="1187" d="M70 55l270 1299q145 76 356 76q213 0 326 -126.5t113 -353.5q0 -182 -70 -397t-180 -348q-184 -225 -504 -225q-88 0 -177 22.5t-134 52.5zM197 96q76 -33 196 -33q248 0 404 197q98 125 158.5 334t60.5 385q0 377 -340 377q-125 0 -230 -37z" />
<glyph unicode="E" horiz-adv-x="892" d="M70 0l290 1409h619l-16 -80h-502l-115 -557h455l-17 -80h-454l-127 -612h502l-17 -80h-618z" />
<glyph unicode="F" horiz-adv-x="876" d="M70 0l290 1409h615l-17 -80h-497l-115 -557h453l-17 -80h-452l-144 -692h-116z" />
<glyph unicode="G" horiz-adv-x="1183" d="M135 494q0 176 62.5 363t171.5 317q213 256 503 256q178 0 291 -76l-45 -66q-94 59 -239 60q-268 0 -435 -236q-84 -119 -136 -293t-52 -330q0 -203 93 -316.5t239 -113.5q147 0 233 41l121 592h-274l16 80h391l-147 -717q-143 -75 -348 -75h-5q-186 0 -313 132t-127 382 z" />
<glyph unicode="H" horiz-adv-x="1196" d="M70 0l290 1409h117l-131 -637h615l131 637h116l-290 -1409h-117l143 692h-614l-144 -692h-116z" />
<glyph unicode="I" horiz-adv-x="483" d="M78 0l291 1409h118l-290 -1409h-119z" />
<glyph unicode="J" horiz-adv-x="483" d="M-291 -451l21 93q123 37 227 157.5t137 280.5l275 1329h118l-274 -1329q-43 -211 -189.5 -354.5t-314.5 -176.5z" />
<glyph unicode="K" horiz-adv-x="1011" d="M78 0l293 1409h112l-137 -661h4l647 661h129l-673 -668l409 -741h-131l-383 743h-4l-154 -743h-112z" />
<glyph unicode="L" horiz-adv-x="827" d="M78 0l291 1409h116l-274 -1329h457l-17 -80h-573z" />
<glyph unicode="M" horiz-adv-x="1589" d="M20 0l469 1409h138l80 -1135l4 -157h4q20 63 67 157l555 1135h138l-115 -1409h-109l117 1178l18 161h-4q-25 -74 -67 -161l-574 -1178h-104l-82 1180l-4 159h-4q-18 -78 -45 -159l-375 -1180h-107z" />
<glyph unicode="N" horiz-adv-x="1327" d="M70 0l290 1409h148l420 -1122l51 -158h4q6 68 27 164l231 1116h98l-290 -1409h-115l-432 1145l-62 184h-4q-10 -90 -30 -186l-238 -1143h-98z" />
<glyph unicode="O" horiz-adv-x="1228" d="M135 430q0 182 59.5 392t157.5 352q178 256 453 256q190 0 280.5 -119t90.5 -328q0 -184 -60.5 -397t-157.5 -355q-171 -251 -446 -251h-2q-193 0 -284 119.5t-91 330.5zM248 414q0 -344 270 -344q225 0 367 235q76 127 127 332t51 367q0 346 -262 346q-217 0 -363 -230 q-84 -133 -137 -335.5t-53 -370.5z" />
<glyph unicode="P" horiz-adv-x="1040" d="M70 0l280 1354q137 76 332 76q182 0 278.5 -84.5t96.5 -229.5q0 -188 -121 -330q-158 -184 -463 -184q-76 0 -162 10l-127 -612h-114zM328 688q59 -8 143 -8q262 0 383 162q90 118 90 284q0 229 -282 230q-111 0 -205 -37z" />
<glyph unicode="Q" horiz-adv-x="1228" d="M135 430q0 182 59.5 392t157.5 352q176 256 453 256q190 0 280.5 -119t90.5 -328q0 -184 -60.5 -397t-157.5 -355q-98 -141 -233 -204l186 -324l-110 -82l-142 381q-71 -22 -143 -22h-6q-193 0 -284 119.5t-91 330.5zM248 414q0 -344 270 -344q225 0 367 235 q76 127 127 332t51 367q0 346 -262 346q-217 0 -363 -230q-84 -133 -137 -335.5t-53 -370.5z" />
<glyph unicode="R" horiz-adv-x="1077" d="M78 0l280 1354q141 76 330 76q176 0 274.5 -83.5t98.5 -228.5q0 -217 -156 -360q-150 -136 -392 -136q-17 0 -34 1v-5l383 -618h-131l-395 676h-4l-142 -676h-112zM336 696q57 -14 137 -14q236 0 361 131q112 118 112 311q0 233 -280 234q-113 0 -201 -37z" />
<glyph unicode="S" horiz-adv-x="925" d="M0 55l49 74q90 -61 236 -61q170 0 276.5 111.5t106.5 262.5q0 76 -46.5 131.5t-113 91t-132 73.5t-111.5 103.5t-46 157.5q0 170 129 300.5t326 130.5q166 0 252 -76l-43 -66q-84 59 -215 60q-162 0 -250 -107.5t-88 -234.5q0 -76 47 -130.5t113.5 -89t134 -73.5 t114.5 -104.5t47 -157.5q0 -180 -136 -325.5t-357 -145.5q-195 0 -293 75z" />
<glyph unicode="T" horiz-adv-x="835" d="M233 1329l17 80h708l-16 -80h-297l-274 -1329h-117l276 1329h-297z" />
<glyph unicode="U" horiz-adv-x="1171" d="M139 299q0 41 11 96l210 1014h117l-211 -1014q-10 -55 -10 -90q0 -109 62.5 -170t168.5 -61q133 0 243 89t140 232l209 1014h105l-209 -1014q-37 -178 -171 -296.5t-325 -118.5q-164 0 -252 89t-88 230z" />
<glyph unicode="V" d="M250 1409h123l67 -1077l11 -197h4q41 104 86 197l518 1077h112l-696 -1409h-100z" />
<glyph unicode="W" horiz-adv-x="1654" d="M274 1409h123v-1116l-6 -160h4q31 78 68 160l502 1116h98l37 -1116l-2 -160h4q29 84 61 160l473 1116h113l-627 -1409h-102l-39 1104l2 162h-4q-20 -72 -61 -162l-500 -1104h-101z" />
<glyph unicode="X" horiz-adv-x="1024" d="M-41 0l541 729l-203 680h123l149 -586h4l424 586h113l-492 -668l234 -741h-127l-178 645h-4l-461 -645h-123z" />
<glyph unicode="Y" horiz-adv-x="1024" d="M250 1409h123l174 -688h4l473 688h119l-549 -768l-133 -641h-117l133 641z" />
<glyph unicode="Z" horiz-adv-x="856" d="M-41 0l825 1329h-528l16 80h682l-823 -1329h565l-16 -80h-721z" />
<glyph unicode="[" horiz-adv-x="688" d="M-16 -440l424 2048h391l-15 -70h-288l-394 -1907h287l-14 -71h-391z" />
<glyph unicode="\" horiz-adv-x="1159" d="M270 1587l88 43l560 -2048l-89 -43z" />
<glyph unicode="]" horiz-adv-x="688" d="M-78 -440l15 71h288l393 1907h-286l14 70h391l-424 -2048h-391z" />
<glyph unicode="^" horiz-adv-x="1155" d="M315 1006l365 374q45 45 86 45q43 0 68 -45l210 -374l-43 -37l-249 372l-402 -372z" />
<glyph unicode="_" d="M-201 -379l17 78h1085l-16 -78h-1086z" />
<glyph unicode="`" horiz-adv-x="389" d="M209 1503q16 29 55 29q49 0 78 -29l92 -274h-59z" />
<glyph unicode="a" horiz-adv-x="1048" d="M111 367q0 133 49 281.5t127 252.5q170 223 430 223q88 0 165.5 -23t118.5 -52l-206 -994q-114 -75 -311 -75h-5q-182 0 -275 104t-93 283zM221 358q0 -301 273 -301q131 0 202 41l191 920q-63 37 -174 37q-215 0 -351 -205q-66 -96 -103.5 -232.5t-37.5 -259.5z" />
<glyph unicode="b" horiz-adv-x="1040" d="M66 55l321 1553h109l-113 -547q98 55 242 55q156 0 242.5 -99.5t86.5 -279.5q0 -133 -47 -280.5t-123 -251.5q-166 -225 -432 -225q-82 0 -164 21.5t-122 53.5zM182 88q61 -31 168 -31q221 0 355 199q63 94 101 230t38 257q0 139 -59.5 222.5t-184.5 83.5 q-135 0 -231 -52z" />
<glyph unicode="c" horiz-adv-x="851" d="M115 383q0 127 41 266t108 242q154 233 391 233q74 0 136.5 -23t89.5 -52l-50 -62q-70 57 -165 57q-197 0 -314 -194q-57 -96 -92 -233.5t-35 -254.5q0 -296 220 -296h1q115 0 201 65l23 -76q-95 -75 -242 -75h-4q-145 0 -227 110.5t-82 292.5z" />
<glyph unicode="d" horiz-adv-x="1044" d="M106 367q0 133 46.5 277t123.5 247q172 227 445 227q98 0 178 -26l107 516h108l-321 -1553q-114 -75 -313 -75h-5q-182 0 -275.5 104t-93.5 283zM217 360q0 -303 272 -303q131 0 203 41l195 930q-78 23 -156 23q-229 0 -375 -211q-66 -94 -102.5 -226.5t-36.5 -253.5z " />
<glyph unicode="e" horiz-adv-x="1044" d="M111 360q0 127 39.5 272.5t107.5 248.5q157 243 406 243h2q150 0 231.5 -83t81.5 -253q0 -86 -21 -182l-733 -104q-12 -74 -12 -135q0 -301 287 -301q158 0 284 67l19 -78q-129 -75 -311 -75h-5q-174 0 -275 93t-101 287zM240 571l622 93q17 73 17 143q0 240 -222 240 q-195 0 -319 -207q-66 -113 -98 -269z" />
<glyph unicode="f" horiz-adv-x="598" d="M115 0l215 1040h-129l12 64h131l35 176q33 168 136 248t224 80h23l-14 -70q-74 0 -152 -58.5t-102 -181.5l-39 -194h202l-12 -64h-205l-215 -1040h-110z" />
<glyph unicode="g" horiz-adv-x="1044" d="M-4 -385l51 68q102 -59 244 -60q152 0 245 93.5t126 236.5l18 84q-100 -53 -240 -53q-160 0 -248 99t-88 275q0 129 45.5 273.5t116.5 249.5q167 243 443 243h2q88 0 167.5 -22t116.5 -51l-223 -1082q-41 -199 -166 -314.5t-311 -115.5q-182 0 -299 76zM213 338 q0 -283 260 -283q125 0 221 54l189 911q-61 35 -174 35q-223 0 -363 -226q-59 -96 -96 -233t-37 -258z" />
<glyph unicode="h" horiz-adv-x="1044" d="M53 0l334 1608h111l-117 -564q139 80 278 80q141 0 217 -67.5t76 -186.5q0 -43 -8 -84l-164 -786h-110l166 799q8 45 8 69q0 180 -203 181q-133 0 -274 -74l-203 -975h-111z" />
<glyph unicode="i" horiz-adv-x="442" d="M61 0l230 1104h108l-227 -1104h-111zM334 1397q0 33 26.5 60.5t63.5 27.5q25 0 42 -17.5t17 -42.5q0 -33 -26.5 -60.5t-63.5 -27.5q-27 0 -43 17.5t-16 42.5z" />
<glyph unicode="j" horiz-adv-x="458" d="M-291 -451l17 84q133 49 232 164t130 260l217 1047h111l-217 -1045q-39 -188 -170 -324t-320 -186zM350 1397q0 33 26.5 60.5t63.5 27.5q25 0 42.5 -17.5t17.5 -42.5q0 -33 -27 -60.5t-63 -27.5q-27 0 -43.5 17.5t-16.5 42.5z" />
<glyph unicode="k" horiz-adv-x="901" d="M66 0l333 1608h107l-213 -1028h4l543 524h127l-572 -531l393 -573h-126l-367 575h-4l-119 -575h-106z" />
<glyph unicode="l" horiz-adv-x="450" d="M66 0l333 1608h109l-334 -1608h-108z" />
<glyph unicode="m" horiz-adv-x="1662" d="M53 0l217 1049q156 75 360 75h5q221 0 299 -143q61 61 158.5 102t197.5 41h2q281 0 281 -241q0 -29 -8 -74l-168 -809h-111l168 805q8 35 8 78q0 166 -198 166q-80 0 -160 -36t-133 -95l-191 -918h-110l170 815q6 33 6 62q0 172 -234 172q-123 0 -239 -45l-209 -1004 h-111z" />
<glyph unicode="n" horiz-adv-x="1044" d="M53 0l217 1049q154 75 367 75h6q162 0 236.5 -68t74.5 -179q0 -43 -8 -78l-166 -799h-110l168 805q8 33 8 74q0 76 -53.5 123t-169.5 47q-133 0 -250 -45l-209 -1004h-111z" />
<glyph unicode="o" horiz-adv-x="1048" d="M106 336q0 131 40 284.5t106 260.5q146 243 397 243h2q312 0 312 -354q0 -131 -40 -284.5t-106 -260.5q-146 -245 -397 -245h-2q-160 0 -236 95t-76 261zM215 326q0 -266 213 -267q197 0 307 217q51 100 86 250t35 265q0 262 -211 262q-197 0 -311 -224 q-51 -100 -85 -244.5t-34 -258.5z" />
<glyph unicode="p" horiz-adv-x="1040" d="M-37 -440l309 1489q133 75 313 75h5q178 0 271 -102.5t93 -278.5q0 -127 -45 -271t-116 -247q-167 -241 -449 -241h-2q-104 0 -176 28l-94 -452h-109zM180 82q53 -25 148 -25q246 0 385 219q61 96 97 231.5t36 256.5q0 289 -273 289q-111 0 -198 -39z" />
<glyph unicode="q" horiz-adv-x="1040" d="M106 358q0 131 43.5 274.5t116.5 248.5q167 243 445 243h2q88 0 165.5 -23t116.5 -52l-309 -1489h-106l100 477q-100 -53 -240 -53q-158 0 -246 97t-88 277zM213 340q0 -285 260 -285q129 0 221 54l189 911q-61 35 -172 35q-223 0 -363 -226q-59 -98 -97 -235t-38 -254z " />
<glyph unicode="r" horiz-adv-x="626" d="M53 0l217 1049q137 75 373 75h6q8 0 25.5 -1t25.5 -1l-51 -94q-67 11 -121 11q-101 0 -157 -38l-207 -1001h-111z" />
<glyph unicode="s" horiz-adv-x="806" d="M-8 55l45 72q72 -63 215 -64q127 0 211 86.5t84 198.5q0 66 -38 108t-91 66.5t-107.5 51t-92.5 79t-38 129.5q0 135 106.5 238.5t264.5 103.5h4q136 0 215 -75l-41 -64q-61 61 -182 62q-111 0 -186.5 -75t-75.5 -173q0 -63 38.5 -104.5t93 -66t110 -51t94 -80 t38.5 -132.5q0 -154 -118.5 -269.5t-298.5 -115.5q-152 0 -250 75z" />
<glyph unicode="t" horiz-adv-x="614" d="M160 180q0 27 8 72l162 788h-129l12 64h131l53 264l121 41l-63 -305h200l-14 -64h-201l-164 -794q-6 -31 -6 -60q0 -118 119 -118h2q31 0 49 6l-14 -74q-31 -10 -70 -10q-102 0 -149 53t-47 137z" />
<glyph unicode="u" horiz-adv-x="1024" d="M111 233q0 39 10 95l162 776h110l-162 -776q-10 -47 -10 -86q0 -180 217 -181q152 0 236 41l207 1002h110l-217 -1049q-131 -75 -346 -75h-6q-311 0 -311 253z" />
<glyph unicode="v" horiz-adv-x="991" d="M209 1104h115l92 -871l6 -116h4q14 49 49 116l451 871h106l-590 -1104h-90z" />
<glyph unicode="w" horiz-adv-x="1572" d="M221 1104h113l43 -871v-116h4q14 47 49 116l434 871h101l65 -871l4 -116h4q18 63 45 119l410 868h109l-549 -1104h-88l-70 885l-2 116h-4q-16 -53 -47 -116l-443 -885h-88z" />
<glyph unicode="x" horiz-adv-x="929" d="M-33 0l463 578l-197 526h111l150 -442h4l336 442h112l-416 -526l222 -578h-115l-170 492h-4l-375 -492h-121z" />
<glyph unicode="y" horiz-adv-x="991" d="M78 -440l276 442l-145 1102h117l88 -871l4 -120h4q16 53 51 120l453 871h106l-829 -1544h-125z" />
<glyph unicode="z" horiz-adv-x="839" d="M-33 0l719 1040h-471l14 64h623l-715 -1038h520l-14 -66h-676z" />
<glyph unicode="{" horiz-adv-x="737" d="M152 637l14 68q80 4 124 59t66 160l88 419q31 141 125 203t262 62l-14 -70q-113 0 -181.5 -42t-90.5 -155l-86 -417q-29 -131 -79 -183.5t-128 -68.5v-4q51 -14 82 -58.5t31 -109.5q0 -33 -11 -80l-78 -381q-8 -35 -8 -76q0 -160 191 -160l-17 -69q-276 0 -276 229 q0 39 8 74l78 383q10 55 10 92q0 117 -110 125z" />
<glyph unicode="|" horiz-adv-x="425" d="M-33 -440l424 2048h101l-424 -2048h-101z" />
<glyph unicode="}" horiz-adv-x="737" d="M-33 -266l15 71q229 0 272 205l86 410q45 217 207 248v4q-113 27 -113 166q0 31 10 86l82 393q8 35 9 72q0 78 -46.5 113.5t-146.5 35.5l14 70q279 0 279 -226q0 -20 -8 -69l-80 -389q-10 -45 -10 -95q-1 -118 110 -124l-14 -68q-82 -6 -126 -60.5t-65 -156.5l-86 -412 q-31 -150 -125 -212t-264 -62z" />
<glyph unicode="~" horiz-adv-x="1159" d="M209 618q92 158 244 158q82 0 174 -65.5t149 -65.5q66 0 106 35t81 104l49 -65q-76 -162 -236 -162q-70 0 -161 65.5t-162 65.5q-115 0 -201 -131z" />
<glyph unicode="&#xa1;" horiz-adv-x="569" d="M49 -440l223 968h82l-176 -968h-129zM299 870q0 39 31.5 72t75.5 33q31 0 50 -19.5t19 -48.5q0 -39 -31.5 -71.5t-74.5 -32.5q-31 0 -50.5 19.5t-19.5 47.5z" />
<glyph unicode="&#xa2;" d="M217 555q0 131 49 265t135 224q121 129 289 146l29 217h92l-57 -215q138 -4 204 -59l-40 -62q-63 47 -173 47q-164 0 -272 -125q-68 -78 -107.5 -200.5t-39.5 -235.5q0 -262 239 -262q123 0 197 53l18 -76q-90 -59 -233 -59l-33 -213h-90l61 215q-125 14 -196.5 102.5 t-71.5 237.5z" />
<glyph unicode="&#xa3;" d="M70 0q242 246 290 485q18 94 17 207h-197l15 68h176q-18 168 10 303q35 166 162 266.5t313 100.5q80 0 152.5 -21.5t105.5 -48.5l-45 -64q-88 51 -221 52q-147 0 -242.5 -89.5t-124.5 -228.5q-23 -106 -10 -270h279l-15 -68h-258q2 -92 -22 -215q-23 -104 -88.5 -219 t-112.5 -166h623l-19 -92h-788z" />
<glyph unicode="&#xa4;" d="M61 330l177 145q-39 68 -39 152q0 164 137 297l-119 151l59 47l119 -149q115 82 244 82q125 0 207 -78l174 143l49 -59l-174 -146q37 -63 37 -145q0 -168 -137 -301l118 -152l-61 -47l-117 150q-115 -82 -243 -82q-123 0 -205 76l-176 -144zM279 633q0 -96 59 -159.5 t160 -63.5q135 0 244.5 107.5t109.5 242.5q0 98 -59.5 162.5t-159.5 64.5q-137 0 -245.5 -108.5t-108.5 -245.5z" />
<glyph unicode="&#xa5;" d="M106 582l15 73l364 -14l-67 223l-256 -18l14 72l232 -15l-150 506h119l174 -707h4l477 707h115l-359 -506l236 15l-14 -72l-248 18l-160 -223l367 14l-15 -73l-362 20l-125 -602h-111l125 602z" />
<glyph unicode="&#xa6;" horiz-adv-x="425" d="M-33 -440l166 805h100l-165 -805h-101zM225 803l166 805h101l-166 -805h-101z" />
<glyph unicode="&#xa7;" d="M53 -387l47 68q72 -61 179 -62q115 0 192.5 71.5t77.5 178.5q0 82 -88 170l-170 172q-117 119 -117 262q0 152 86 248t250 186q-88 100 -88 211q0 129 94 220.5t242 91.5q68 0 128 -23.5t89 -52.5l-43 -60q-82 59 -172 60q-102 0 -172 -64.5t-70 -167.5q0 -96 109 -207 l123 -124q133 -133 133 -275q0 -145 -89 -242.5t-245 -179.5q104 -111 104 -219q0 -127 -97 -231.5t-277 -104.5q-135 0 -226 74zM272 500q0 -127 103 -230l125 -125q137 78 208.5 156t71.5 205q0 117 -92 209l-137 139q-133 -70 -206 -149.5t-73 -204.5z" />
<glyph unicode="&#xa8;" horiz-adv-x="389" d="M143 1333q0 33 26 58.5t58 25.5q25 0 41.5 -17t16.5 -40q0 -33 -26 -57.5t-60 -24.5q-25 0 -40.5 16.5t-15.5 38.5zM453 1333q0 33 25.5 58.5t58.5 25.5q25 0 41 -17t16 -40q0 -33 -25.5 -57.5t-60.5 -24.5q-25 0 -40 16.5t-15 38.5z" />
<glyph unicode="&#xa9;" horiz-adv-x="1728" d="M164 555q0 221 127 425t333.5 327t428.5 123q260 0 424.5 -165t164.5 -415q0 -223 -126.5 -426t-332.5 -323.5t-429 -120.5q-260 0 -425 163.5t-165 411.5zM236 559q0 -223 144 -368.5t376 -145.5q313 0 563 245t250 556q0 225 -143.5 372.5t-374.5 147.5 q-205 0 -394.5 -113.5t-305 -301t-115.5 -392.5zM473 618q0 197 163 359t359 162q100 0 179 -45t116 -113l-51 -43q-31 53 -94.5 94t-153.5 41q-170 0 -307 -140t-137 -310q0 -121 77.5 -199t200.5 -78q172 0 303 135l52 -47q-160 -156 -363 -155q-154 0 -249 96t-95 243z " />
<glyph unicode="&#xaa;" horiz-adv-x="745" d="M184 930q0 86 32 181t83 165q113 150 287 149q124 0 196 -55l-135 -649q-78 -51 -213 -51q-123 0 -186.5 70.5t-63.5 189.5zM276 924q0 -186 168 -187q78 0 123 25l119 579q-37 20 -102 21q-133 0 -219 -129q-88 -133 -89 -309z" />
<glyph unicode="&#xab;" horiz-adv-x="991" d="M160 684l393 430l53 -53l-352 -385l186 -377l-65 -43zM504 684l393 430l53 -53l-352 -385l186 -377l-65 -43z" />
<glyph unicode="&#xac;" d="M147 647l17 82h766l-86 -420h-90l69 338h-676z" />
<glyph unicode="&#xad;" horiz-adv-x="696" d="M160 639l20 98h430l-20 -98h-430z" />
<glyph unicode="&#xae;" horiz-adv-x="1728" d="M164 555q0 221 127 425t333.5 327t428.5 123q260 0 424.5 -165t164.5 -415q0 -223 -126.5 -426t-332.5 -323.5t-429 -120.5q-260 0 -425 163.5t-165 411.5zM236 559q0 -223 144 -368.5t376 -145.5q313 0 563 245t250 556q0 225 -143.5 372.5t-374.5 147.5 q-205 0 -394.5 -113.5t-305 -301t-115.5 -392.5zM594 281l176 843q84 39 207 39q94 0 161.5 -47t67.5 -137q0 -133 -97 -209t-235 -76l222 -413h-84l-217 411h-39l-86 -411h-76zM766 745h92q115 0 192.5 59.5t77.5 168.5q0 127 -178 127q-59 0 -114 -19z" />
<glyph unicode="&#xaf;" horiz-adv-x="389" d="M90 1294l16 74h537l-16 -74h-537z" />
<glyph unicode="&#xb0;" horiz-adv-x="884" d="M262 1067q0 141 113.5 252t255.5 111q109 0 177.5 -69t68.5 -173q0 -139 -114 -249t-255 -110q-109 0 -177.5 68t-68.5 170zM340 1079q0 -78 48 -129t128 -51q111 0 198 87t87 198q0 78 -48 129t-128 51q-111 0 -198 -87t-87 -198z" />
<glyph unicode="&#xb1;" d="M70 152l16 81h764l-16 -81h-764zM193 748l18 83h338l76 375h88l-78 -375h340l-17 -83h-340l-79 -377h-86l77 377h-337z" />
<glyph unicode="&#xb2;" horiz-adv-x="745" d="M98 543l406 444q135 152 135 246q0 119 -150 119q-76 0 -157 -39l-15 65q96 45 197 45q104 0 161.5 -49t57.5 -129q0 -123 -160 -295l-309 -332h350l-14 -75h-502z" />
<glyph unicode="&#xb3;" horiz-adv-x="745" d="M139 578l39 61q59 -39 158 -39q106 0 170.5 71.5t64.5 172.5q0 82 -64.5 115.5t-156.5 25.5l12 64q106 4 184.5 60t78.5 148q0 98 -123 99q-74 0 -156 -39l-16 59q88 47 196 47q78 0 132.5 -42.5t54.5 -114.5q0 -76 -53.5 -141.5t-137.5 -94.5q139 -45 140 -182 q0 -125 -88.5 -221.5t-237.5 -96.5q-125 0 -197 48z" />
<glyph unicode="&#xb4;" horiz-adv-x="389" d="M250 1229l201 274q47 29 94 29q51 0 57 -29l-283 -274h-69z" />
<glyph unicode="&#xb5;" horiz-adv-x="1024" d="M-37 -440l320 1544h110l-200 -969q31 -25 104.5 -50.5t132.5 -25.5q156 0 242 43l209 1002h110l-219 -1049q-139 -76 -342 -75q-68 0 -141.5 26.5t-110.5 59.5l-104 -506h-111z" />
<glyph unicode="&#xb6;" d="M205 -440l235 1134q-104 25 -160.5 106t-56.5 187q0 63 23.5 133t72 136.5t134.5 109.5t196 43h490l-15 -68h-69l-369 -1781h-96l368 1781h-288l-369 -1781h-96z" />
<glyph unicode="&#xb7;" horiz-adv-x="462" d="M184 686q0 39 32 72t75 33q31 0 50 -19.5t19 -48.5q0 -39 -31.5 -72t-74.5 -33q-31 0 -50.5 19.5t-19.5 48.5z" />
<glyph unicode="&#xb8;" horiz-adv-x="389" d="M-242 -391l45 53q53 -4 105 -4q281 0 280 102q0 59 -147 60q-35 0 -109 -4l45 51q92 6 103 6q211 0 211 -104q0 -168 -365 -168q-74 0 -168 8z" />
<glyph unicode="&#xb9;" horiz-adv-x="745" d="M287 1227v47q94 12 175 50t120 85h57l-178 -866h-88l149 729q-98 -35 -235 -45z" />
<glyph unicode="&#xba;" horiz-adv-x="745" d="M184 918q0 96 33 203.5t88 176.5q100 127 264 127q230 1 230 -241q0 -102 -35 -213t-96 -183q-102 -119 -254 -118q-229 0 -230 248zM274 907q0 -170 144 -170q115 0 186 94q47 63 77 171t30 196q0 170 -144 170q-113 0 -188 -102q-45 -63 -75 -168t-30 -191z" />
<glyph unicode="&#xbb;" horiz-adv-x="991" d="M115 307l352 385l-186 377l65 45l215 -430l-393 -428zM459 307l352 385l-186 377l65 45l215 -430l-393 -428z" />
<glyph unicode="&#xbc;" horiz-adv-x="1593" d="M221 1227v47q94 12 175 50t120 85h57l-178 -866h-88l150 729q-98 -35 -236 -45zM242 8l985 1428l76 -35l-990 -1430zM803 205l12 61l479 600h82l-125 -598h72l-12 -63h-72l-43 -205h-80l43 205h-356zM899 268h270l84 396l23 96h-4q-27 -47 -68 -98z" />
<glyph unicode="&#xbd;" horiz-adv-x="1593" d="M205 8l987 1428l74 -35l-990 -1430zM233 1227v47q94 12 175 50t120 85h58l-178 -866h-89l150 729q-98 -35 -236 -45zM774 0l406 444q135 152 135 246q0 119 -150 119q-76 0 -157 -39l-15 66q96 45 197 45q104 0 161.5 -49.5t57.5 -129.5q0 -123 -160 -294l-309 -332h350 l-14 -76h-502z" />
<glyph unicode="&#xbe;" horiz-adv-x="1593" d="M143 578l39 61q57 -39 158 -39q106 0 170.5 71.5t64.5 172.5q0 82 -64.5 115.5t-156.5 25.5l13 64q106 4 184 60t78 148q0 98 -123 99q-74 0 -156 -39l-16 59q88 47 196 47q78 0 132.5 -42.5t54.5 -114.5q0 -76 -53.5 -141.5t-137.5 -94.5q139 -45 140 -182 q0 -125 -88.5 -221.5t-237.5 -96.5q-125 0 -197 48zM356 8l987 1428l74 -35l-989 -1430zM852 205l12 61l479 600h82l-125 -598h72l-12 -63h-72l-43 -205h-80l43 205h-356zM948 268h271l84 396l22 96h-4q-27 -47 -68 -98z" />
<glyph unicode="&#xbf;" horiz-adv-x="765" d="M-41 -207q0 147 107.5 254t263.5 152l90 329h82l-51 -372q-162 -39 -270.5 -128t-108.5 -231q0 -174 221 -174q111 0 225 60l27 -68q-135 -76 -283 -76q-143 0 -223 65.5t-80 188.5zM446 874q0 39 32 72t75 33q31 0 50.5 -19.5t19.5 -48.5q0 -39 -32 -71.5t-75 -32.5 q-31 0 -50.5 19.5t-19.5 47.5z" />
<glyph unicode="&#xc0;" horiz-adv-x="1167" d="M-53 0l778 1409h94l193 -1409h-119l-55 481h-516l-259 -481h-116zM362 557h467l-65 571l-12 170h-4q-27 -70 -80 -170zM604 1790q16 29 55 29q49 0 78 -29l92 -274h-59z" />
<glyph unicode="&#xc1;" horiz-adv-x="1167" d="M-53 0l778 1409h94l193 -1409h-119l-55 481h-516l-259 -481h-116zM362 557h467l-65 571l-12 170h-4q-27 -70 -80 -170zM733 1516l201 274q47 29 94 29q51 0 57 -29l-283 -274h-69z" />
<glyph unicode="&#xc2;" horiz-adv-x="1167" d="M-53 0l778 1409h94l193 -1409h-119l-55 481h-516l-259 -481h-116zM362 557h467l-65 571l-12 170h-4q-27 -70 -80 -170zM553 1549l236 200q29 27 61.5 27t53.5 -27l153 -200l-39 -29l-180 166l-248 -166z" />
<glyph unicode="&#xc3;" horiz-adv-x="1167" d="M-53 0l778 1409h94l193 -1409h-119l-55 481h-516l-259 -481h-116zM362 557h467l-65 571l-12 170h-4q-27 -70 -80 -170zM545 1594q57 111 172 110q47 0 107.5 -41t99.5 -41q80 0 129 86l45 -51q-63 -109 -170 -108q-45 0 -109.5 39.5t-107.5 39.5q-72 0 -125 -86z" />
<glyph unicode="&#xc4;" horiz-adv-x="1167" d="M-53 0l778 1409h94l193 -1409h-119l-55 481h-516l-259 -481h-116zM362 557h467l-65 571l-12 170h-4q-27 -70 -80 -170zM594 1620q0 33 26 58.5t58 25.5q25 0 41.5 -17t16.5 -40q0 -33 -26 -57.5t-60 -24.5q-25 0 -40.5 16.5t-15.5 38.5zM904 1620q0 33 25.5 58.5 t58.5 25.5q25 0 41 -17t16 -40q0 -33 -25.5 -57.5t-60.5 -24.5q-25 0 -40 16.5t-15 38.5z" />
<glyph unicode="&#xc5;" horiz-adv-x="1167" d="M-53 0l778 1409h94l193 -1409h-119l-55 481h-516l-259 -481h-116zM362 557h467l-65 571l-12 170h-4q-27 -70 -80 -170zM668 1641q0 74 58.5 131t132.5 57q57 0 93 -35t36 -88q0 -76 -57.5 -133t-133.5 -57q-55 0 -92 35.5t-37 89.5zM725 1649q0 -35 21.5 -58.5 t56.5 -23.5q49 0 88 41t39 90q0 35 -20.5 58.5t-55.5 23.5q-49 0 -89 -41t-40 -90z" />
<glyph unicode="&#xc6;" horiz-adv-x="1515" d="M-66 0l781 1409h719l-17 -80h-583l67 -557h416l-17 -80h-389l76 -612h410l-17 -80h-493l-51 481h-525l-260 -481h-117zM350 557h477l-67 635l-6 129h-4q-20 -59 -60 -131z" />
<glyph unicode="&#xc7;" horiz-adv-x="970" d="M102 -391l45 53q53 -4 105 -4q281 0 280 102q0 59 -147 60q-35 0 -109 -4l45 51q92 6 103 6q211 0 211 -104q0 -168 -365 -168q-74 0 -168 8zM135 463q0 219 83 441t228 362q170 164 379 164q156 0 240 -76l-49 -62q-76 55 -187 56q-174 0 -311 -144 q-121 -129 -191.5 -340t-70.5 -401q0 -397 289 -397q61 0 125.5 20t99.5 45l27 -76q-98 -76 -271 -75q-190 0 -290.5 131t-100.5 352z" />
<glyph unicode="&#xc8;" horiz-adv-x="892" d="M70 0l290 1409h619l-16 -80h-502l-115 -557h455l-17 -80h-454l-127 -612h502l-17 -80h-618zM531 1790q16 29 55 29q49 0 78 -29l92 -274h-59z" />
<glyph unicode="&#xc9;" horiz-adv-x="892" d="M70 0l290 1409h619l-16 -80h-502l-115 -557h455l-17 -80h-454l-127 -612h502l-17 -80h-618zM623 1516l201 274q47 29 94 29q51 0 57 -29l-283 -274h-69z" />
<glyph unicode="&#xca;" horiz-adv-x="892" d="M70 0l290 1409h619l-16 -80h-502l-115 -557h455l-17 -80h-454l-127 -612h502l-17 -80h-618zM438 1549l236 200q29 27 61.5 27t53.5 -27l153 -200l-39 -29l-180 166l-248 -166z" />
<glyph unicode="&#xcb;" horiz-adv-x="892" d="M70 0l290 1409h619l-16 -80h-502l-115 -557h455l-17 -80h-454l-127 -612h502l-17 -80h-618zM483 1620q0 33 26 58.5t58 25.5q25 0 41.5 -17t16.5 -40q0 -33 -26 -57.5t-60 -24.5q-25 0 -40.5 16.5t-15.5 38.5zM793 1620q0 33 25.5 58.5t58.5 25.5q25 0 41 -17t16 -40 q0 -33 -25.5 -57.5t-60.5 -24.5q-25 0 -40 16.5t-15 38.5z" />
<glyph unicode="&#xcc;" horiz-adv-x="483" d="M78 0l291 1409h118l-290 -1409h-119zM311 1790q16 29 55 29q49 0 78 -29l92 -274h-59z" />
<glyph unicode="&#xcd;" horiz-adv-x="483" d="M78 0l291 1409h118l-290 -1409h-119zM361 1516l201 274q47 29 94 29q51 0 57 -29l-283 -274h-69z" />
<glyph unicode="&#xce;" horiz-adv-x="483" d="M78 0l291 1409h118l-290 -1409h-119zM204 1549l236 200q29 27 61.5 27t53.5 -27l153 -200l-39 -29l-180 166l-248 -166z" />
<glyph unicode="&#xcf;" horiz-adv-x="483" d="M78 0l291 1409h118l-290 -1409h-119zM249 1620q0 33 26 58.5t58 25.5q25 0 41.5 -17t16.5 -40q0 -33 -26 -57.5t-60 -24.5q-25 0 -40.5 16.5t-15.5 38.5zM559 1620q0 33 25.5 58.5t58.5 25.5q25 0 41 -17t16 -40q0 -33 -25.5 -57.5t-60.5 -24.5q-25 0 -40 16.5t-15 38.5z " />
<glyph unicode="&#xd0;" horiz-adv-x="1245" d="M127 55l141 684h-133l12 58h134l116 557q145 76 357 76q213 0 325.5 -126.5t112.5 -353.5q0 -182 -69.5 -397t-180.5 -348q-184 -225 -504 -225q-88 0 -177 22.5t-134 52.5zM254 96q76 -33 197 -33q248 0 403 197q98 125 158.5 334t60.5 385q0 377 -340 377 q-125 0 -229 -37l-107 -522h273l-13 -58h-272z" />
<glyph unicode="&#xd1;" horiz-adv-x="1327" d="M70 0l290 1409h148l420 -1122l51 -158h4q6 68 27 164l231 1116h98l-290 -1409h-115l-432 1145l-62 184h-4q-10 -90 -30 -186l-238 -1143h-98zM622 1594q57 111 172 110q47 0 107.5 -41t99.5 -41q80 0 129 86l45 -51q-63 -109 -170 -108q-45 0 -109.5 39.5t-107.5 39.5 q-72 0 -125 -86z" />
<glyph unicode="&#xd2;" horiz-adv-x="1228" d="M135 430q0 182 59.5 392t157.5 352q178 256 453 256q190 0 280.5 -119t90.5 -328q0 -184 -60.5 -397t-157.5 -355q-172 -252 -448 -251q-193 0 -284 119.5t-91 330.5zM248 414q0 -344 270 -344q225 0 367 235q76 127 127 332t51 367q0 346 -262 346q-217 0 -363 -230 q-84 -133 -137 -335.5t-53 -370.5zM668 1790q16 29 55 29q49 0 78 -29l92 -274h-59z" />
<glyph unicode="&#xd3;" horiz-adv-x="1228" d="M135 430q0 182 59.5 392t157.5 352q178 256 453 256q190 0 280.5 -119t90.5 -328q0 -184 -60.5 -397t-157.5 -355q-172 -252 -448 -251q-193 0 -284 119.5t-91 330.5zM248 414q0 -344 270 -344q225 0 367 235q76 127 127 332t51 367q0 346 -262 346q-217 0 -363 -230 q-84 -133 -137 -335.5t-53 -370.5zM737 1516l201 274q47 29 94 29q51 0 57 -29l-283 -274h-69z" />
<glyph unicode="&#xd4;" horiz-adv-x="1228" d="M135 430q0 182 59.5 392t157.5 352q178 256 453 256q190 0 280.5 -119t90.5 -328q0 -184 -60.5 -397t-157.5 -355q-172 -252 -448 -251q-193 0 -284 119.5t-91 330.5zM248 414q0 -344 270 -344q225 0 367 235q76 127 127 332t51 367q0 346 -262 346q-217 0 -363 -230 q-84 -133 -137 -335.5t-53 -370.5zM577 1549l236 200q29 27 61.5 27t53.5 -27l153 -200l-39 -29l-180 166l-248 -166z" />
<glyph unicode="&#xd5;" horiz-adv-x="1228" d="M135 430q0 182 59.5 392t157.5 352q178 256 453 256q190 0 280.5 -119t90.5 -328q0 -184 -60.5 -397t-157.5 -355q-172 -252 -448 -251q-193 0 -284 119.5t-91 330.5zM248 414q0 -344 270 -344q225 0 367 235q76 127 127 332t51 367q0 346 -262 346q-217 0 -363 -230 q-84 -133 -137 -335.5t-53 -370.5zM582 1594q57 111 172 110q47 0 107.5 -41t99.5 -41q80 0 129 86l45 -51q-63 -109 -170 -108q-45 0 -109.5 39.5t-107.5 39.5q-72 0 -125 -86z" />
<glyph unicode="&#xd6;" horiz-adv-x="1228" d="M135 430q0 182 59.5 392t157.5 352q178 256 453 256q190 0 280.5 -119t90.5 -328q0 -184 -60.5 -397t-157.5 -355q-172 -252 -448 -251q-193 0 -284 119.5t-91 330.5zM248 414q0 -344 270 -344q225 0 367 235q76 127 127 332t51 367q0 346 -262 346q-217 0 -363 -230 q-84 -133 -137 -335.5t-53 -370.5zM622 1618q0 33 26 58.5t58 25.5q25 0 41.5 -17t16.5 -40q0 -33 -26 -57.5t-60 -24.5q-25 0 -40.5 16.5t-15.5 38.5zM932 1618q0 33 25.5 58.5t58.5 25.5q25 0 41 -17t16 -40q0 -33 -25.5 -57.5t-60.5 -24.5q-25 0 -40 16.5t-15 38.5z" />
<glyph unicode="&#xd7;" d="M74 242l16 82h770l-16 -82h-770zM121 471l22 98l725 254l-620 254l16 84l707 -303l-17 -82z" />
<glyph unicode="&#xd8;" horiz-adv-x="1228" d="M29 0l155 184q-43 104 -43 246q0 182 59.5 392t157.5 352q178 256 453 256q205 0 299 -148l147 174l41 -37l-159 -188q43 -104 43 -248q0 -184 -60.5 -397t-156.5 -355q-172 -252 -449 -251q-209 0 -305 151l-139 -166zM246 412q0 -78 14 -138l784 930q-61 152 -235 152 q-219 0 -369 -232q-86 -135 -140 -338.5t-54 -373.5zM279 211q63 -147 243 -148q229 0 373 238q78 129 130 336t52 369q0 74 -12 135z" />
<glyph unicode="&#xd9;" horiz-adv-x="1171" d="M139 299q0 41 11 96l210 1014h117l-211 -1014q-10 -55 -10 -90q0 -109 62.5 -170t168.5 -61q133 0 243 89t140 232l209 1014h105l-209 -1014q-37 -178 -171 -296.5t-325 -118.5q-164 0 -252 89t-88 230zM674 1790q16 29 55 29q49 0 78 -29l92 -274h-59z" />
<glyph unicode="&#xda;" horiz-adv-x="1171" d="M139 299q0 41 11 96l210 1014h117l-211 -1014q-10 -55 -10 -90q0 -109 62.5 -170t168.5 -61q133 0 243 89t140 232l209 1014h105l-209 -1014q-37 -178 -171 -296.5t-325 -118.5q-164 0 -252 89t-88 230zM711 1516l201 274q47 29 94 29q51 0 57 -29l-283 -274h-69z" />
<glyph unicode="&#xdb;" horiz-adv-x="1171" d="M139 299q0 41 11 96l210 1014h117l-211 -1014q-10 -55 -10 -90q0 -109 62.5 -170t168.5 -61q133 0 243 89t140 232l209 1014h105l-209 -1014q-37 -178 -171 -296.5t-325 -118.5q-164 0 -252 89t-88 230zM551 1549l236 200q29 27 61.5 27t53.5 -27l153 -200l-39 -29 l-180 166l-248 -166z" />
<glyph unicode="&#xdc;" horiz-adv-x="1171" d="M139 299q0 41 11 96l210 1014h117l-211 -1014q-10 -55 -10 -90q0 -109 62.5 -170t168.5 -61q133 0 243 89t140 232l209 1014h105l-209 -1014q-37 -178 -171 -296.5t-325 -118.5q-164 0 -252 89t-88 230zM600 1620q0 33 26 58.5t58 25.5q25 0 41.5 -17t16.5 -40 q0 -33 -26 -57.5t-60 -24.5q-25 0 -40.5 16.5t-15.5 38.5zM910 1620q0 33 25.5 58.5t58.5 25.5q25 0 41 -17t16 -40q0 -33 -25.5 -57.5t-60.5 -24.5q-25 0 -40 16.5t-15 38.5z" />
<glyph unicode="&#xdd;" horiz-adv-x="1024" d="M250 1409h123l174 -688h4l473 688h119l-549 -768l-133 -641h-117l133 641zM645 1516l201 274q47 29 94 29q51 0 57 -29l-283 -274h-69z" />
<glyph unicode="&#xde;" horiz-adv-x="1040" d="M70 0l290 1409h117l-53 -258q106 31 199 31q180 0 274 -87.5t94 -232.5q0 -104 -41 -203.5t-116 -166.5q-154 -141 -435 -142q-63 0 -137 12l-76 -362h-116zM276 434q66 -10 138 -10q223 0 348 129q115 114 115 309q0 250 -281 250q-96 0 -184 -27z" />
<glyph unicode="&#xdf;" horiz-adv-x="1089" d="M66 0l229 1112q14 70 36.5 135.5t64.5 136t93.5 121.5t128 85t164.5 34q139 0 209 -81t70 -216q0 -174 -86 -330q-125 -12 -209 -71.5t-84 -173.5q0 -45 26.5 -84t65.5 -69t78 -62.5t65.5 -84t26.5 -116.5q0 -139 -112.5 -243.5t-282.5 -104.5q-117 0 -182 41l41 65 q49 -27 143 -26q119 0 204 75.5t85 192.5q0 53 -26 95t-63.5 71.5t-74.5 60.5t-62.5 78t-25.5 109q0 125 88 200.5t221 104.5q66 127 66 295q0 205 -185 204q-150 0 -244 -128t-133 -312l-231 -1114h-104z" />
<glyph unicode="&#xe0;" horiz-adv-x="1048" d="M111 367q0 133 49 281.5t127 252.5q170 223 430 223q88 0 165.5 -23t118.5 -52l-206 -994q-115 -76 -316 -75q-182 0 -275 104t-93 283zM221 358q0 -301 273 -301q131 0 202 41l191 920q-63 37 -174 37q-215 0 -351 -205q-66 -96 -103.5 -232.5t-37.5 -259.5zM578 1503 q16 29 55 29q49 0 78 -29l92 -274h-59z" />
<glyph unicode="&#xe1;" horiz-adv-x="1048" d="M111 367q0 133 49 281.5t127 252.5q170 223 430 223q88 0 165.5 -23t118.5 -52l-206 -994q-115 -76 -316 -75q-182 0 -275 104t-93 283zM221 358q0 -301 273 -301q131 0 202 41l191 920q-63 37 -174 37q-215 0 -351 -205q-66 -96 -103.5 -232.5t-37.5 -259.5zM680 1229 l201 274q47 29 94 29q51 0 57 -29l-283 -274h-69z" />
<glyph unicode="&#xe2;" horiz-adv-x="1048" d="M111 367q0 133 49 281.5t127 252.5q170 223 430 223q88 0 165.5 -23t118.5 -52l-206 -994q-115 -76 -316 -75q-182 0 -275 104t-93 283zM221 358q0 -301 273 -301q131 0 202 41l191 920q-63 37 -174 37q-215 0 -351 -205q-66 -96 -103.5 -232.5t-37.5 -259.5zM479 1262 l236 200q29 27 61.5 27t53.5 -27l153 -200l-39 -29l-180 166l-248 -166z" />
<glyph unicode="&#xe3;" horiz-adv-x="1048" d="M111 367q0 133 49 281.5t127 252.5q170 223 430 223q88 0 165.5 -23t118.5 -52l-206 -994q-115 -76 -316 -75q-182 0 -275 104t-93 283zM221 358q0 -301 273 -301q131 0 202 41l191 920q-63 37 -174 37q-215 0 -351 -205q-66 -96 -103.5 -232.5t-37.5 -259.5zM465 1307 q57 111 172 110q47 0 107.5 -41t99.5 -41q80 0 129 86l45 -51q-63 -109 -170 -108q-45 0 -109.5 39.5t-107.5 39.5q-72 0 -125 -86z" />
<glyph unicode="&#xe4;" horiz-adv-x="1048" d="M111 367q0 133 49 281.5t127 252.5q170 223 430 223q88 0 165.5 -23t118.5 -52l-206 -994q-115 -76 -316 -75q-182 0 -275 104t-93 283zM221 358q0 -301 273 -301q131 0 202 41l191 920q-63 37 -174 37q-215 0 -351 -205q-66 -96 -103.5 -232.5t-37.5 -259.5zM542 1333 q0 33 26 58.5t58 25.5q25 0 41.5 -17t16.5 -40q0 -33 -26 -57.5t-60 -24.5q-25 0 -40.5 16.5t-15.5 38.5zM852 1333q0 33 25.5 58.5t58.5 25.5q25 0 41 -17t16 -40q0 -33 -25.5 -57.5t-60.5 -24.5q-25 0 -40 16.5t-15 38.5z" />
<glyph unicode="&#xe5;" horiz-adv-x="1048" d="M111 367q0 133 49 281.5t127 252.5q170 223 430 223q88 0 165.5 -23t118.5 -52l-206 -994q-115 -76 -316 -75q-182 0 -275 104t-93 283zM221 358q0 -301 273 -301q131 0 202 41l191 920q-63 37 -174 37q-215 0 -351 -205q-66 -96 -103.5 -232.5t-37.5 -259.5zM614 1354 q0 74 58.5 131t132.5 57q57 0 93 -35t36 -88q0 -76 -57.5 -133t-133.5 -57q-55 0 -92 35.5t-37 89.5zM671 1362q0 -35 21.5 -58.5t56.5 -23.5q49 0 88 41t39 90q0 35 -20.5 58.5t-55.5 23.5q-49 0 -89 -41t-40 -90z" />
<glyph unicode="&#xe6;" horiz-adv-x="1634" d="M66 221q0 133 76.5 234.5t205.5 158.5q156 72 430 99q25 119 25 149q0 184 -234 185q-123 0 -254 -68l-14 70q131 76 299 75q256 0 285 -221q145 221 375 221q309 1 309 -329q0 -86 -21 -189l-731 -104q-39 -223 38 -331t235 -108q160 0 286 64l19 -76q-127 -72 -320 -71 q-123 0 -208 57t-124 166q-74 -117 -159.5 -170t-223.5 -53q-143 0 -218.5 64.5t-75.5 176.5zM166 229q0 -90 58.5 -135t156.5 -45q104 0 196.5 66.5t114.5 177.5l72 348q-258 -31 -381 -88q-100 -47 -158.5 -132t-58.5 -192zM829 573l619 91q16 92 16 149q0 229 -217 229 q-141 0 -254.5 -115.5t-163.5 -353.5z" />
<glyph unicode="&#xe7;" horiz-adv-x="851" d="M8 -391l45 53q53 -4 105 -4q281 0 280 102q0 59 -147 60q-35 0 -109 -4l45 51q92 6 103 6q211 0 211 -104q0 -168 -365 -168q-74 0 -168 8zM115 383q0 127 41 266t108 242q154 233 391 233q74 0 136.5 -23t89.5 -52l-50 -62q-70 57 -165 57q-197 0 -314 -194 q-57 -96 -92 -233.5t-35 -254.5q0 -297 221 -296q115 0 201 65l23 -76q-96 -76 -246 -75q-145 0 -227 110.5t-82 292.5z" />
<glyph unicode="&#xe8;" horiz-adv-x="1044" d="M111 360q0 127 39.5 272.5t107.5 248.5q158 244 408 243q150 0 231.5 -83t81.5 -253q0 -86 -21 -182l-733 -104q-70 -436 275 -436q158 0 284 67l19 -78q-131 -76 -316 -75q-174 0 -275 93t-101 287zM240 571l622 93q17 73 17 143q0 240 -222 240q-195 0 -319 -207 q-66 -113 -98 -269zM531 1503q16 29 55 29q49 0 78 -29l92 -274h-59z" />
<glyph unicode="&#xe9;" horiz-adv-x="1044" d="M111 360q0 127 39.5 272.5t107.5 248.5q158 244 408 243q150 0 231.5 -83t81.5 -253q0 -86 -21 -182l-733 -104q-70 -436 275 -436q158 0 284 67l19 -78q-131 -76 -316 -75q-174 0 -275 93t-101 287zM240 571l622 93q17 73 17 143q0 240 -222 240q-195 0 -319 -207 q-66 -113 -98 -269zM621 1229l201 274q47 29 94 29q51 0 57 -29l-283 -274h-69z" />
<glyph unicode="&#xea;" horiz-adv-x="1044" d="M111 360q0 127 39.5 272.5t107.5 248.5q158 244 408 243q150 0 231.5 -83t81.5 -253q0 -86 -21 -182l-733 -104q-70 -436 275 -436q158 0 284 67l19 -78q-131 -76 -316 -75q-174 0 -275 93t-101 287zM240 571l622 93q17 73 17 143q0 240 -222 240q-195 0 -319 -207 q-66 -113 -98 -269zM440 1262l236 200q29 27 61.5 27t53.5 -27l153 -200l-39 -29l-180 166l-248 -166z" />
<glyph unicode="&#xeb;" horiz-adv-x="1044" d="M111 360q0 127 39.5 272.5t107.5 248.5q158 244 408 243q150 0 231.5 -83t81.5 -253q0 -86 -21 -182l-733 -104q-70 -436 275 -436q158 0 284 67l19 -78q-131 -76 -316 -75q-174 0 -275 93t-101 287zM240 571l622 93q17 73 17 143q0 240 -222 240q-195 0 -319 -207 q-66 -113 -98 -269zM493 1333q0 33 26 58.5t58 25.5q25 0 41.5 -17t16.5 -40q0 -33 -26 -57.5t-60 -24.5q-25 0 -40.5 16.5t-15.5 38.5zM803 1333q0 33 25.5 58.5t58.5 25.5q25 0 41 -17t16 -40q0 -33 -25.5 -57.5t-60.5 -24.5q-25 0 -40 16.5t-15 38.5z" />
<glyph unicode="&#xec;" horiz-adv-x="442" d="M61 0l230 1104h110l-229 -1104h-111zM225 1503q16 29 55 29q49 0 78 -29l92 -274h-59z" />
<glyph unicode="&#xed;" horiz-adv-x="442" d="M61 0l230 1104h110l-229 -1104h-111zM283 1229l201 274q47 29 94 29q51 0 57 -29l-283 -274h-69z" />
<glyph unicode="&#xee;" horiz-adv-x="442" d="M61 0l230 1104h110l-229 -1104h-111zM123 1262l236 200q29 27 61.5 27t53.5 -27l153 -200l-39 -29l-180 166l-248 -166z" />
<glyph unicode="&#xef;" horiz-adv-x="442" d="M61 0l230 1104h110l-229 -1104h-111zM168 1333q0 33 26 58.5t58 25.5q25 0 41.5 -17t16.5 -40q0 -33 -26 -57.5t-60 -24.5q-25 0 -40.5 16.5t-15.5 38.5zM478 1333q0 33 25.5 58.5t58.5 25.5q25 0 41 -17t16 -40q0 -33 -25.5 -57.5t-60.5 -24.5q-25 0 -40 16.5t-15 38.5z " />
<glyph unicode="&#xf0;" horiz-adv-x="1048" d="M106 348q0 135 45.5 284.5t118.5 258.5q154 223 394 223q88 0 161 -27q-37 190 -90 324l-196 -55l-21 53l193 57q-35 82 -64 127l86 27q35 -53 68 -127l174 49l20 -53l-172 -51q131 -315 131 -633q0 -154 -36.5 -317.5t-106.5 -282.5q-133 -229 -389 -230 q-150 0 -233 98.5t-83 274.5zM217 346q0 -293 229 -293q178 0 281 203q121 240 121 590q0 109 -14 178q-70 27 -166 27q-188 0 -318 -211q-59 -98 -96 -236.5t-37 -257.5z" />
<glyph unicode="&#xf1;" horiz-adv-x="1044" d="M53 0l217 1049q156 76 373 75q162 0 236.5 -68t74.5 -179q0 -43 -8 -78l-166 -799h-110l168 805q8 33 8 74q0 76 -53.5 123t-169.5 47q-133 0 -250 -45l-209 -1004h-111zM409 1307q57 111 172 110q47 0 107.5 -41t99.5 -41q80 0 129 86l45 -51q-63 -109 -170 -108 q-45 0 -109.5 39.5t-107.5 39.5q-72 0 -125 -86z" />
<glyph unicode="&#xf2;" horiz-adv-x="1048" d="M106 336q0 131 40 284.5t106 260.5q147 244 399 243q312 0 312 -354q0 -131 -40 -284.5t-106 -260.5q-147 -246 -399 -245q-160 0 -236 95t-76 261zM215 326q0 -266 213 -267q197 0 307 217q51 100 86 250t35 265q0 262 -211 262q-197 0 -311 -224q-51 -100 -85 -244.5 t-34 -258.5zM508 1503q16 29 55 29q49 0 78 -29l92 -274h-59z" />
<glyph unicode="&#xf3;" horiz-adv-x="1048" d="M106 336q0 131 40 284.5t106 260.5q147 244 399 243q312 0 312 -354q0 -131 -40 -284.5t-106 -260.5q-147 -246 -399 -245q-160 0 -236 95t-76 261zM215 326q0 -266 213 -267q197 0 307 217q51 100 86 250t35 265q0 262 -211 262q-197 0 -311 -224q-51 -100 -85 -244.5 t-34 -258.5zM606 1229l201 274q47 29 94 29q51 0 57 -29l-283 -274h-69z" />
<glyph unicode="&#xf4;" horiz-adv-x="1048" d="M106 336q0 131 40 284.5t106 260.5q147 244 399 243q312 0 312 -354q0 -131 -40 -284.5t-106 -260.5q-147 -246 -399 -245q-160 0 -236 95t-76 261zM215 326q0 -266 213 -267q197 0 307 217q51 100 86 250t35 265q0 262 -211 262q-197 0 -311 -224q-51 -100 -85 -244.5 t-34 -258.5zM428 1262l236 200q29 27 61.5 27t53.5 -27l153 -200l-39 -29l-180 166l-248 -166z" />
<glyph unicode="&#xf5;" horiz-adv-x="1048" d="M106 336q0 131 40 284.5t106 260.5q147 244 399 243q312 0 312 -354q0 -131 -40 -284.5t-106 -260.5q-147 -246 -399 -245q-160 0 -236 95t-76 261zM215 326q0 -266 213 -267q197 0 307 217q51 100 86 250t35 265q0 262 -211 262q-197 0 -311 -224q-51 -100 -85 -244.5 t-34 -258.5zM414 1307q57 111 172 110q47 0 107.5 -41t99.5 -41q80 0 129 86l45 -51q-63 -109 -170 -108q-45 0 -109.5 39.5t-107.5 39.5q-72 0 -125 -86z" />
<glyph unicode="&#xf6;" horiz-adv-x="1048" d="M106 336q0 131 40 284.5t106 260.5q147 244 399 243q312 0 312 -354q0 -131 -40 -284.5t-106 -260.5q-147 -246 -399 -245q-160 0 -236 95t-76 261zM215 326q0 -266 213 -267q197 0 307 217q51 100 86 250t35 265q0 262 -211 262q-197 0 -311 -224q-51 -100 -85 -244.5 t-34 -258.5zM473 1333q0 33 26 58.5t58 25.5q25 0 41.5 -17t16.5 -40q0 -33 -26 -57.5t-60 -24.5q-25 0 -40.5 16.5t-15.5 38.5zM783 1333q0 33 25.5 58.5t58.5 25.5q25 0 41 -17t16 -40q0 -33 -25.5 -57.5t-60.5 -24.5q-25 0 -40 16.5t-15 38.5z" />
<glyph unicode="&#xf7;" d="M168 643l16 82h766l-16 -82h-766zM403 342q0 39 32 71.5t75 32.5q31 0 50.5 -19t19.5 -48q0 -39 -32 -72t-75 -33q-31 0 -50.5 19.5t-19.5 48.5zM537 987q0 39 31.5 72t74.5 33q31 0 50.5 -19.5t19.5 -48.5q0 -39 -32 -71.5t-75 -32.5q-31 0 -50 19t-19 48z" />
<glyph unicode="&#xf8;" horiz-adv-x="1048" d="M20 -51l132 168q-47 86 -48 219q0 131 40 284.5t106 260.5q147 244 399 243q154 0 230 -86l118 152l43 -31l-129 -164q49 -84 50 -225q0 -131 -40 -284.5t-106 -260.5q-147 -246 -399 -245q-152 0 -232 90l-125 -158zM207 322q0 -68 14 -119l602 766q-53 94 -178 94 q-199 0 -317 -227q-51 -100 -86 -249t-35 -265zM244 145q53 -96 180 -96q199 0 313 221q51 100 87 254t36 271q0 70 -14 118z" />
<glyph unicode="&#xf9;" horiz-adv-x="1024" d="M111 233q0 39 10 95l162 776h110l-162 -776q-10 -47 -10 -86q0 -180 217 -181q152 0 236 41l207 1002h110l-217 -1049q-133 -76 -352 -75q-311 0 -311 253zM526 1503q16 29 55 29q49 0 78 -29l92 -274h-59z" />
<glyph unicode="&#xfa;" horiz-adv-x="1024" d="M111 233q0 39 10 95l162 776h110l-162 -776q-10 -47 -10 -86q0 -180 217 -181q152 0 236 41l207 1002h110l-217 -1049q-133 -76 -352 -75q-311 0 -311 253zM598 1229l201 274q47 29 94 29q51 0 57 -29l-283 -274h-69z" />
<glyph unicode="&#xfb;" horiz-adv-x="1024" d="M111 233q0 39 10 95l162 776h110l-162 -776q-10 -47 -10 -86q0 -180 217 -181q152 0 236 41l207 1002h110l-217 -1049q-133 -76 -352 -75q-311 0 -311 253zM417 1262l236 200q29 27 61.5 27t53.5 -27l153 -200l-39 -29l-180 166l-248 -166z" />
<glyph unicode="&#xfc;" horiz-adv-x="1024" d="M111 233q0 39 10 95l162 776h110l-162 -776q-10 -47 -10 -86q0 -180 217 -181q152 0 236 41l207 1002h110l-217 -1049q-133 -76 -352 -75q-311 0 -311 253zM462 1333q0 33 26 58.5t58 25.5q25 0 41.5 -17t16.5 -40q0 -33 -26 -57.5t-60 -24.5q-25 0 -40.5 16.5 t-15.5 38.5zM772 1333q0 33 25.5 58.5t58.5 25.5q25 0 41 -17t16 -40q0 -33 -25.5 -57.5t-60.5 -24.5q-25 0 -40 16.5t-15 38.5z" />
<glyph unicode="&#xfd;" horiz-adv-x="991" d="M78 -440l276 442l-145 1102h117l88 -871l4 -120h4q16 53 51 120l453 871h106l-829 -1544h-125zM582 1229l201 274q47 29 94 29q51 0 57 -29l-283 -274h-69z" />
<glyph unicode="&#xfe;" horiz-adv-x="1044" d="M-37 -440l424 2048h109l-113 -541q106 53 211 53q180 0 272 -97t92 -275q0 -139 -48 -289t-130 -254q-176 -223 -444 -223q-86 0 -170 26l-92 -448h-111zM180 74q74 -25 154 -25q227 0 371 207q68 96 106.5 235.5t38.5 266.5q0 295 -281 295q-102 0 -196 -47z" />
<glyph unicode="&#xff;" horiz-adv-x="991" d="M78 -440l276 442l-145 1102h117l88 -871l4 -120h4q16 53 51 120l453 871h106l-829 -1544h-125zM448 1333q0 33 26 58.5t58 25.5q25 0 41.5 -17t16.5 -40q0 -33 -26 -57.5t-60 -24.5q-25 0 -40.5 16.5t-15.5 38.5zM758 1333q0 33 25.5 58.5t58.5 25.5q25 0 41 -17t16 -40 q0 -33 -25.5 -57.5t-60.5 -24.5q-25 0 -40 16.5t-15 38.5z" />
<glyph unicode="&#x152;" horiz-adv-x="1552" d="M135 463q0 186 64.5 388t175.5 337q195 242 487 242q82 0 164 -21h612l-16 -80h-502l-116 -557h458l-16 -80h-459l-125 -610h502l-16 -82h-613q-74 -20 -174 -20q-215 0 -320.5 131t-105.5 352zM252 442q0 -385 315 -385q119 0 185 19l262 1267q-59 14 -158 15 q-236 0 -395 -221q-96 -131 -152.5 -326t-56.5 -369z" />
<glyph unicode="&#x153;" horiz-adv-x="1716" d="M106 338q0 156 53.5 330t143.5 284q139 172 350 172q231 0 285 -254q78 129 185.5 191.5t217.5 62.5q310 1 310 -327q0 -88 -21 -191l-727 -104q-31 -242 51 -341.5t228 -99.5q141 0 276 70l19 -76q-139 -76 -314 -75q-133 0 -225 68.5t-119 215.5q-152 -285 -403 -284 q-309 0 -310 358zM215 328q0 -270 207 -271q182 0 295 189q59 100 100 265t41 290q0 252 -209 252q-160 0 -268 -152q-74 -102 -120 -268t-46 -305zM915 573l619 89q16 73 16 149q0 242 -215 242q-141 0 -255.5 -121t-164.5 -359z" />
<glyph unicode="&#x178;" horiz-adv-x="1024" d="M250 1409h123l174 -688h4l473 688h119l-549 -768l-133 -641h-117l133 641zM520 1620q0 33 26 58.5t58 25.5q25 0 41.5 -17t16.5 -40q0 -33 -26 -57.5t-60 -24.5q-25 0 -40.5 16.5t-15.5 38.5zM830 1620q0 33 25.5 58.5t58.5 25.5q25 0 41 -17t16 -40q0 -33 -25.5 -57.5 t-60.5 -24.5q-25 0 -40 16.5t-15 38.5z" />
<glyph unicode="&#x2c6;" horiz-adv-x="389" d="M98 1262l236 200q29 27 61.5 27t53.5 -27l153 -200l-39 -29l-180 166l-248 -166z" />
<glyph unicode="&#x2dc;" horiz-adv-x="389" d="M90 1307q57 111 172 110q47 0 107.5 -41t99.5 -41q80 0 129 86l45 -51q-63 -109 -170 -108q-45 0 -109.5 39.5t-107.5 39.5q-72 0 -125 -86z" />
<glyph unicode="&#x2000;" horiz-adv-x="914" />
<glyph unicode="&#x2001;" horiz-adv-x="1829" />
<glyph unicode="&#x2002;" horiz-adv-x="914" />
<glyph unicode="&#x2003;" horiz-adv-x="1829" />
<glyph unicode="&#x2004;" horiz-adv-x="609" />
<glyph unicode="&#x2005;" horiz-adv-x="457" />
<glyph unicode="&#x2006;" horiz-adv-x="304" />
<glyph unicode="&#x2007;" horiz-adv-x="304" />
<glyph unicode="&#x2008;" horiz-adv-x="228" />
<glyph unicode="&#x2009;" horiz-adv-x="365" />
<glyph unicode="&#x200a;" horiz-adv-x="101" />
<glyph unicode="&#x2010;" horiz-adv-x="696" d="M160 639l20 98h430l-20 -98h-430z" />
<glyph unicode="&#x2011;" horiz-adv-x="696" d="M160 639l20 98h430l-20 -98h-430z" />
<glyph unicode="&#x2012;" horiz-adv-x="696" d="M160 639l20 98h430l-20 -98h-430z" />
<glyph unicode="&#x2013;" horiz-adv-x="778" d="M20 641l19 92h792l-18 -92h-793z" />
<glyph unicode="&#x2014;" horiz-adv-x="1556" d="M20 647l17 80h1573l-17 -80h-1573z" />
<glyph unicode="&#x2018;" horiz-adv-x="491" d="M238 1145l311 463h65l-247 -463q-35 -31 -88 -31q-16 0 -27.5 10.5t-13.5 20.5z" />
<glyph unicode="&#x2019;" horiz-adv-x="491" d="M229 1120l248 463q35 31 88 31q16 0 27.5 -10.5t13.5 -20.5l-311 -463h-66z" />
<glyph unicode="&#x201a;" horiz-adv-x="491" d="M-74 -346l248 463q35 31 88 30q16 0 27.5 -10t13.5 -20l-311 -463h-66z" />
<glyph unicode="&#x201c;" horiz-adv-x="811" d="M238 1145l311 463h65l-247 -463q-35 -31 -88 -31q-16 0 -27.5 10.5t-13.5 20.5zM557 1145l311 463h66l-248 -463q-35 -31 -88 -31q-16 0 -27.5 10.5t-13.5 20.5z" />
<glyph unicode="&#x201d;" horiz-adv-x="811" d="M229 1120l248 463q35 31 88 31q16 0 27.5 -10.5t13.5 -20.5l-311 -463h-66zM549 1120l248 463q35 31 88 31q16 0 27.5 -10.5t13.5 -20.5l-312 -463h-65z" />
<glyph unicode="&#x201e;" horiz-adv-x="811" d="M-74 -346l248 463q35 31 88 30q16 0 27.5 -10t13.5 -20l-311 -463h-66zM246 -346l248 463q35 31 88 30q16 0 27.5 -10t13.5 -20l-312 -463h-65z" />
<glyph unicode="&#x2022;" horiz-adv-x="643" d="M201 696q0 74 59 131.5t133 57.5q59 0 97 -38t38 -95q0 -76 -58 -132.5t-134 -56.5q-59 0 -97 38t-38 95z" />
<glyph unicode="&#x2026;" horiz-adv-x="1462" d="M70 63q0 39 31.5 72t74.5 33q31 0 50.5 -19.5t19.5 -48.5q0 -39 -32 -71.5t-75 -32.5q-31 0 -50 19.5t-19 47.5zM557 63q0 39 32 72t75 33q31 0 50 -19.5t19 -48.5q0 -39 -31.5 -71.5t-74.5 -32.5q-31 0 -50.5 19.5t-19.5 47.5zM1044 63q0 39 32 72t75 33 q31 0 50.5 -19.5t19.5 -48.5q0 -39 -32 -71.5t-75 -32.5q-31 0 -50.5 19.5t-19.5 47.5z" />
<glyph unicode="&#x202f;" horiz-adv-x="365" />
<glyph unicode="&#x2039;" horiz-adv-x="647" d="M160 684l393 430l53 -53l-352 -385l186 -377l-65 -43z" />
<glyph unicode="&#x203a;" horiz-adv-x="647" d="M115 307l352 385l-186 377l65 45l215 -430l-393 -428z" />
<glyph unicode="&#x205f;" horiz-adv-x="457" />
<glyph unicode="&#x2122;" horiz-adv-x="1617" d="M283 1350l12 59h483l-12 -59h-203l-135 -656h-78l137 656h-204zM698 694l236 715h119l53 -651l321 651h121l-57 -715h-78l62 664l-342 -664h-78l-68 664l-213 -664h-76z" />
<glyph unicode="&#x25fc;" horiz-adv-x="1105" d="M0 0v1106h1106v-1106h-1106z" />
<glyph unicode="&#xfb01;" horiz-adv-x="987" d="M115 0l215 1040h-129l12 64h131l35 176q33 168 136 248t224 80h23l-14 -70q-74 0 -152 -58.5t-102 -181.5l-39 -194h202l-12 -64h-205l-215 -1040h-110zM612 0l230 1104h108l-227 -1104h-111zM883 1397q0 33 26.5 60.5t63.5 27.5q25 0 42 -17.5t17 -42.5 q0 -33 -26.5 -60.5t-63.5 -27.5q-27 0 -43 17.5t-16 42.5z" />
<glyph unicode="&#xfb02;" horiz-adv-x="1011" d="M115 0l215 1040h-129l12 64h131l35 176q33 168 136 248t224 80h23l-14 -70q-74 0 -152 -58.5t-102 -181.5l-39 -194h202l-12 -64h-205l-215 -1040h-110zM625 0l333 1608h111l-334 -1608h-110z" />
</font>
</defs>
</svg>
